{"title":"Rajdhani Express 2013 Hindi HD DVDRip 6ch New Source Sample Incl","uid":8150232,"size":731288058,"categoryP":"video","categoryS":"movies","magnet":"?xt=urn:btih:37e91b9c66b758d0b2451952e1d2b766110c6bd1&amp;dn=Rajdhani+Express+2013+Hindi+HD+DVDRip+6ch+New+Source+Sample+Incl&amp;tr=udp%3A%2F%2Ftracker.openbittorrent.com%3A80&amp;tr=udp%3A%2F%2Fopen.demonii.com%3A1337&amp;tr=udp%3A%2F%2Ftracker.coppersurfer.tk%3A6969&amp;tr=udp%3A%2F%2Fexodus.desync.com%3A6969","seeders":1,"leechers":0,"uploader":"basicssom","files":2,"time":1361020514,"description":"Rajdhani Express 2013 Hindi Movies HD DVDRip 6ch New Source Sample Included ~ rDX\n\nScreen Shots :\n &lt;a href=&quot;\nhttp://myimghosting.serveftp.com/13/RajdhaniExpressDVD.html&quot; rel=&quot;nofollow&quot; target=&quot;_NEW&quot;&gt;\nhttp://myimghosting.serveftp.com/13/RajdhaniExpressDVD.html&lt;/a&gt;\n &lt;a href=&quot;\nhttp://myimghost.cwahi.net/RajdhaniExpressDVD.html&quot; rel=&quot;nofollow&quot; target=&quot;_NEW&quot;&gt;\nhttp://myimghost.cwahi.net/RajdhaniExpressDVD.html&lt;/a&gt;\n\n\nFormat                                   : AVI\nFormat/Info                              : Audio Video Interleave\nFile size                                : 686 MiB\nDuration                                 : 1h 56mn\nOverall bit rate                         : 826 Kbps\nWriting library                          : MPlayer\n\nVideo\nID                                       : 0\nFormat                                   : MPEG-4 Visual\nFormat profile                           : Advanced Simple@L5\nFormat settings, BVOP                    : 3\nFormat settings, QPel                    : No\nFormat settings, GMC                     : No warppoints\nFormat settings, Matrix                  : Default (H.263)\nCodec ID                                 : XVID\nCodec ID/Hint                            : XviD\nDuration                                 : 1h 56mn\nBit rate                                 : 691 Kbps\nWidth                                    : 688 pixels\nHeight                                   : 288 pixels\nDisplay aspect ratio                     : 2.40:1\nFrame rate                               : 29.970 fps\nColor space                              : YUV\nChroma subsampling                       : 4:2:0\nBit depth                                : 8 bits\nScan type                                : Progressive\nCompression mode                         : Lossy\nBits/(Pixel*Frame)                       : 0.116\nStream size                              : 574 MiB (84%)\nWriting library                          : XviD 1.2.1 (UTC 2008-12-04)\n\nAudio\nID                                       : 1\nFormat                                   : AC-3\nFormat/Info                              : Audio Coding 3\nMode extension                           : CM (complete main)\nFormat settings, Endianness              : Big\nCodec ID                                 : 2000\nDuration                                 : 1h 56mn\nBit rate mode                            : Constant\nBit rate                                 : 128 Kbps\nChannel(s)                               : 6 channels\nChannel positions                        : Front: L C R, Side: L R, LFE\nSampling rate                            : 48.0 KHz\nBit depth                                : 16 bits\nCompression mode                         : Lossy\nStream size                              : 106 MiB (16%)\nAlignment                                : Split accross interleaves\nInterleave, duration                     : 500 ms (14.98 video frames)\nInterleave, preload duration             : 500 ms","torrent":{"xt":"urn:btih:37e91b9c66b758d0b2451952e1d2b766110c6bd1","amp;dn":"Rajdhani+Express+2013+Hindi+HD+DVDRip+6ch+New+Source+Sample+Incl","amp;tr":["udp%3A%2F%2Ftracker.openbittorrent.com%3A80","udp%3A%2F%2Fopen.demonii.com%3A1337","udp%3A%2F%2Ftracker.coppersurfer.tk%3A6969","udp%3A%2F%2Fexodus.desync.com%3A6969"],"infoHash":"37e91b9c66b758d0b2451952e1d2b766110c6bd1","infoHashBuffer":{"type":"Buffer","data":[55,233,27,156,102,183,88,208,178,69,25,82,225,210,183,102,17,12,107,209]},"announce":[],"urlList":[]}}